<?xml version="1.0" standalone="no"?>
<!DOCTYPE svg PUBLIC "-//W3C//DTD SVG 20010904//EN"
 "http://www.w3.org/TR/2001/REC-SVG-20010904/DTD/svg10.dtd">
<svg version="1.0" xmlns="http://www.w3.org/2000/svg"
 width="1024.000000pt" height="1024.000000pt" viewBox="0 0 1024.000000 1024.000000"
 preserveAspectRatio="xMidYMid meet">

<g transform="translate(0.000000,1024.000000) scale(0.100000,-0.100000)"
fill="#205081" stroke="none">
<path d="M4790 9389 c-285 -30 -272 -29 -452 -60 -35 -6 -83 -15 -108 -20 -25
-6 -65 -15 -90 -20 -127 -28 -228 -57 -395 -111 -116 -38 -150 -50 -187 -69
-10 -5 -22 -9 -28 -9 -6 0 -32 -10 -58 -21 -26 -12 -63 -28 -82 -36 -154 -65
-348 -165 -509 -262 -179 -107 -435 -290 -526 -374 -16 -15 -49 -42 -72 -60
-55 -42 -414 -404 -479 -482 -27 -33 -51 -62 -54 -65 -8 -8 -60 -75 -127 -165
-187 -251 -363 -556 -486 -845 -8 -19 -22 -51 -30 -70 -8 -19 -23 -55 -32 -80
-9 -25 -21 -54 -25 -65 -11 -25 -83 -246 -100 -305 -7 -25 -16 -56 -20 -70 -5
-14 -13 -47 -20 -75 -6 -27 -15 -66 -20 -85 -5 -19 -14 -62 -20 -95 -6 -33
-15 -78 -20 -100 -5 -22 -14 -76 -20 -120 -6 -44 -15 -109 -20 -145 -31 -221
-40 -628 -19 -845 33 -345 67 -539 153 -858 41 -149 150 -452 213 -587 42 -90
132 -273 151 -305 9 -16 34 -58 54 -93 21 -35 38 -66 38 -68 0 -7 198 -301
237 -352 76 -101 73 -104 73 82 0 237 27 410 101 636 26 80 39 112 95 223 61
121 114 197 208 295 165 172 300 233 457 206 152 -26 241 -66 454 -208 83 -54
152 -102 155 -105 3 -3 12 -10 21 -16 9 -5 44 -29 77 -53 34 -23 66 -42 71
-42 6 0 11 -4 11 -10 0 -5 5 -10 11 -10 6 0 23 -8 37 -19 65 -46 213 -121 239
-121 49 0 121 144 153 307 13 63 9 83 -15 83 -55 0 -228 142 -318 260 -23 30
-50 64 -59 74 -10 11 -18 25 -18 32 0 7 -4 14 -8 16 -20 8 -115 191 -166 318
-53 133 -74 202 -111 375 -48 220 -46 498 4 695 66 259 265 519 509 663 231
137 500 226 860 287 147 24 188 32 213 42 29 10 29 -2 -1 133 -61 279 -54 497
32 895 60 280 146 414 333 520 119 68 182 100 410 214 263 130 355 182 445
250 156 117 242 212 299 331 42 85 52 120 71 230 6 39 16 89 21 112 13 62 12
70 -18 76 -16 3 -46 10 -68 16 -38 9 -88 21 -180 42 -142 32 -332 61 -520 80
-136 14 -620 19 -725 8z"/>
<path d="M6718 9084 c-4 -3 -2 -20 4 -37 79 -253 77 -460 -7 -702 -32 -92
-129 -273 -165 -305 -3 -3 -21 -25 -40 -50 -19 -25 -38 -46 -42 -48 -14 -6 -9
-33 10 -60 17 -25 93 -178 113 -227 14 -36 46 -139 58 -189 26 -107 24 -339
-5 -433 l-6 -23 129 0 c184 0 325 -25 450 -81 24 -11 45 -19 48 -19 4 0 44
-25 90 -56 159 -105 260 -241 324 -434 33 -100 38 -120 51 -195 6 -38 16 -94
21 -124 12 -73 12 -558 -1 -679 -31 -287 -32 -296 -61 -479 -20 -127 -58 -305
-101 -468 -34 -128 -106 -344 -143 -430 -7 -16 -21 -50 -31 -75 -20 -51 -131
-272 -170 -340 -35 -59 -178 -269 -201 -295 -10 -11 -39 -45 -64 -75 -91 -109
-229 -233 -339 -306 -48 -32 -133 -74 -150 -74 -22 0 -73 32 -126 81 -52 47
-57 49 -70 32 -7 -10 -14 -22 -14 -26 0 -5 -13 -28 -30 -52 -16 -24 -30 -48
-30 -52 0 -5 -8 -18 -17 -29 -10 -10 -35 -43 -55 -73 -117 -169 -378 -415
-533 -501 -22 -12 -51 -30 -65 -39 -33 -23 -201 -105 -270 -131 -89 -35 -231
-80 -315 -99 -27 -7 -66 -16 -85 -21 -19 -4 -66 -13 -105 -20 -38 -6 -92 -15
-118 -21 -27 -5 -65 -9 -85 -9 -20 0 -72 -4 -116 -10 -138 -17 -640 -31 -678
-19 -42 14 -120 51 -176 84 -53 31 -225 146 -232 155 -3 3 -63 45 -134 93
l-129 86 -31 -16 c-17 -9 -33 -19 -36 -23 -3 -3 -34 -26 -70 -50 -182 -121
-335 -256 -421 -370 -60 -80 -112 -176 -106 -194 3 -8 38 -38 79 -68 83 -63
344 -238 354 -238 3 0 19 -9 34 -20 48 -34 332 -182 431 -224 24 -10 64 -28
89 -38 25 -11 55 -24 68 -29 12 -5 32 -13 45 -18 12 -5 38 -14 57 -21 19 -7
44 -16 55 -20 20 -9 89 -31 195 -65 237 -74 527 -132 830 -166 148 -17 638
-23 770 -10 189 19 370 43 455 61 22 5 67 14 100 20 72 14 131 28 253 60 85
23 276 82 317 100 11 4 36 13 55 20 19 7 45 16 58 21 12 5 32 13 45 18 88 35
187 80 312 142 138 68 236 121 275 149 16 11 31 20 34 20 10 0 305 199 376
254 325 250 599 523 847 846 54 71 253 366 253 376 0 3 9 19 20 34 35 49 181
330 229 441 55 128 129 322 158 414 9 28 22 70 30 95 40 121 95 356 124 530
40 237 54 430 54 725 0 271 -5 368 -26 525 -35 266 -62 399 -133 663 -35 127
-130 396 -183 517 -94 214 -216 449 -274 532 -11 14 -19 29 -19 32 0 16 -189
289 -263 380 -17 21 -43 54 -57 72 -14 18 -43 55 -65 83 -52 65 -444 454 -515
511 -30 25 -57 47 -60 50 -7 7 -73 58 -165 127 -106 79 -208 147 -335 224 -94
56 -134 78 -285 157 -40 21 -157 76 -225 105 -19 8 -51 22 -72 31 -40 18 -42
18 -50 10z"/>
<path d="M6522 8815 c-31 -149 -63 -294 -82 -360 -6 -22 -15 -53 -19 -70 -5
-16 -16 -52 -25 -78 -10 -27 -15 -54 -12 -60 2 -7 5 -5 5 5 1 9 4 18 9 20 7 3
45 79 62 123 46 118 74 268 68 365 -2 36 -5 61 -6 55z"/>
<path d="M6120 8327 c-80 -74 -388 -250 -555 -317 -75 -30 -167 -73 -210 -98
-204 -118 -277 -174 -299 -226 -32 -76 -68 -195 -85 -281 -6 -27 -15 -71 -21
-97 -18 -82 -19 -82 98 -23 130 65 162 79 327 145 235 93 302 130 381 212 38
40 81 89 94 108 14 19 32 43 41 53 9 9 22 30 30 45 7 15 25 45 40 67 22 34
114 219 139 280 57 139 62 171 20 132z"/>
<path d="M6285 7623 c-57 -41 -86 -64 -165 -130 -151 -125 -176 -227 -94 -386
38 -72 108 -117 182 -117 51 0 56 2 105 53 38 37 58 68 71 107 24 72 32 216
16 289 -14 62 -69 188 -85 195 -6 2 -20 -3 -30 -11z"/>
<path d="M5655 7259 c-28 -6 -156 -50 -200 -69 -11 -4 -58 -23 -105 -40 -125
-48 -318 -144 -374 -187 -64 -49 -82 -104 -66 -203 27 -163 66 -261 155 -385
58 -81 214 -244 272 -283 44 -31 93 -28 172 10 56 27 206 119 221 137 3 3 34
31 70 61 36 30 90 80 120 111 50 50 71 80 167 233 31 49 33 76 7 76 -22 0
-104 40 -165 81 -66 45 -126 110 -157 171 -26 52 -62 164 -62 192 0 12 -6 39
-13 61 -11 39 -14 41 -42 34z"/>
<path d="M6996 6655 c-9 -13 -16 -29 -16 -35 0 -6 -4 -18 -9 -28 -31 -62 -44
-257 -21 -326 88 -270 126 -381 199 -581 39 -108 130 -384 151 -460 44 -157
61 -227 87 -347 10 -49 23 -88 29 -88 6 0 14 21 17 48 3 26 11 79 17 117 19
122 28 214 40 415 14 220 7 618 -10 695 -61 259 -130 407 -244 521 -70 69
-116 94 -175 94 -41 0 -51 -4 -65 -25z"/>
<path d="M6670 6613 c-41 -15 -89 -39 -127 -65 -23 -15 -44 -28 -48 -28 -5 0
-46 -28 -84 -57 -83 -64 -154 -122 -191 -156 -25 -23 -70 -62 -100 -87 -30
-25 -57 -47 -60 -51 -3 -3 -36 -29 -75 -57 -38 -28 -74 -55 -80 -60 -99 -80
-306 -193 -429 -233 -60 -19 -73 -20 -110 -9 -50 15 -130 52 -134 63 -2 4 -8
7 -13 7 -19 0 -139 100 -238 199 l-105 103 -90 -11 c-103 -14 -191 -28 -253
-42 -164 -36 -224 -50 -253 -59 -14 -4 -45 -13 -70 -20 -57 -16 -159 -49 -185
-60 -11 -4 -36 -14 -55 -20 -46 -17 -244 -111 -250 -119 -3 -4 -21 -18 -40
-30 -19 -13 -71 -60 -115 -105 -122 -123 -163 -220 -190 -450 -45 -371 119
-892 356 -1136 107 -111 161 -129 322 -111 56 7 126 16 155 21 94 18 166 31
207 40 116 26 151 34 280 66 77 20 156 40 175 44 19 5 51 13 70 19 19 5 71 19
115 31 44 12 95 26 113 31 17 5 48 14 67 19 19 6 51 15 70 20 19 6 50 14 68
19 17 6 48 14 68 19 69 18 74 25 37 58 -136 123 -377 242 -613 303 -189 48
-492 37 -790 -30 -103 -23 -122 -28 -195 -49 -41 -13 -105 -25 -141 -27 -65
-4 -67 -4 -88 25 -34 48 -28 78 27 131 49 49 123 110 151 125 9 5 18 12 21 16
7 9 119 84 166 111 89 51 224 117 304 148 47 18 94 37 105 41 46 19 56 22 200
60 241 63 503 86 700 60 179 -24 322 -51 420 -81 59 -17 160 -50 180 -59 11
-4 36 -14 55 -21 88 -32 310 -138 395 -189 28 -17 57 -33 65 -37 15 -7 305
-199 325 -215 5 -5 51 -38 100 -74 50 -35 98 -71 108 -79 9 -8 21 -15 25 -15
5 0 17 -8 28 -17 20 -18 31 -25 102 -65 38 -21 46 -17 58 30 12 44 -44 315
-117 570 -5 17 -13 47 -18 65 -5 17 -15 52 -23 77 -8 25 -25 79 -38 120 -47
152 -148 452 -170 505 -4 11 -18 47 -30 80 -12 33 -27 71 -32 85 -6 14 -14 34
-19 45 -11 26 -43 137 -58 198 -14 59 -15 332 -1 358 6 10 9 19 8 18 -2 0 -10
-3 -18 -6z"/>
<path d="M4925 5044 c-44 -4 -171 -24 -275 -43 l-35 -7 35 -6 c19 -4 71 -10
115 -13 237 -18 483 -109 717 -266 51 -34 95 -65 98 -68 3 -3 30 -26 60 -51
30 -24 96 -87 145 -139 179 -189 210 -217 267 -245 103 -51 273 -68 443 -46
120 16 207 31 235 40 14 4 45 13 70 20 25 7 55 17 68 23 21 10 21 12 5 20 -17
10 -396 294 -454 341 -29 24 -138 96 -144 96 -4 0 -19 8 -33 19 -119 84 -375
198 -562 251 -25 7 -56 16 -70 20 -14 4 -50 13 -80 18 -30 6 -80 16 -110 22
-57 11 -406 21 -495 14z"/>
<path d="M5630 4138 c-421 -139 -584 -194 -680 -228 -63 -23 -135 -48 -160
-56 -25 -8 -54 -19 -65 -23 -11 -5 -36 -14 -55 -21 -19 -7 -44 -16 -55 -20
-11 -4 -45 -17 -75 -28 -30 -11 -136 -52 -236 -92 l-181 -71 -13 -42 c-7 -23
-16 -51 -20 -62 -4 -11 -14 -36 -21 -55 -26 -73 -92 -196 -151 -282 -63 -93
-202 -241 -273 -294 -22 -16 -42 -32 -45 -35 -16 -20 -229 -151 -307 -189 -50
-25 -92 -50 -92 -55 -1 -6 12 -19 29 -28 16 -10 35 -23 42 -31 7 -7 69 -50
138 -96 69 -46 127 -86 130 -89 3 -3 17 -12 33 -20 15 -8 27 -18 27 -23 0 -4
5 -8 10 -8 6 0 44 -22 84 -50 143 -96 119 -90 369 -90 122 0 260 5 307 10 291
36 300 37 488 81 95 23 293 87 307 100 5 5 15 9 23 9 14 0 170 76 249 121 219
124 472 374 595 587 92 158 181 389 208 537 7 39 16 83 21 99 5 16 9 69 9 117
l0 89 -46 0 c-55 0 -181 27 -244 52 -100 41 -153 74 -239 154 l-56 50 -55 -18z"/>
<path d="M7150 4063 c-92 -42 -152 -64 -225 -83 -107 -29 -147 -38 -200 -49
-33 -7 -76 -17 -96 -22 -20 -5 -48 -9 -61 -9 -23 0 -26 -4 -32 -62 -30 -275
-54 -398 -100 -528 -23 -64 -21 -73 24 -114 39 -35 42 -36 68 -22 71 37 265
227 357 351 17 22 33 42 36 45 9 8 104 151 134 201 37 64 158 310 154 313 -2
2 -29 -7 -59 -21z"/>
<path d="M2451 3552 c-51 -24 -181 -157 -238 -242 -105 -157 -192 -385 -222
-580 -6 -36 -15 -95 -21 -131 -13 -88 -13 -316 1 -437 11 -94 13 -99 53 -141
83 -87 200 -185 205 -170 2 8 31 55 64 104 100 151 338 375 519 490 27 17 48
33 48 36 0 4 -33 33 -72 64 -40 32 -109 95 -153 140 -104 106 -112 129 -96
265 27 241 4 570 -43 610 -7 5 -24 3 -45 -8z"/>
<path d="M2905 3388 c-2 -7 -6 -53 -9 -103 -4 -49 -11 -119 -16 -155 -6 -36
-13 -99 -16 -141 -6 -70 -4 -79 19 -116 26 -41 75 -83 97 -83 11 0 99 45 195
100 75 42 173 113 242 174 l32 29 -55 28 c-84 44 -146 79 -176 100 -14 11 -29
19 -33 19 -3 0 -33 18 -65 40 -32 22 -62 40 -65 40 -3 0 -33 18 -65 40 -63 42
-78 48 -85 28z"/>
</g>
</svg>
