<?xml version="1.0" encoding="UTF-8"?>
<svg xmlns="http://www.w3.org/2000/svg" xmlns:xlink="http://www.w3.org/1999/xlink" width="1024pt" height="1024pt" viewBox="0 0 1024 1024" version="1.1">
<g id="surface1">
<path style=" stroke:none;fill-rule:nonzero;fill:rgb(12.54902%,31.372549%,50.588235%);fill-opacity:1;" d="M 479 85.101562 C 450.5 88.101562 451.800781 88 433.800781 91.101562 C 430.300781 91.699219 425.5 92.601562 423 93.101562 C 420.5 93.699219 416.5 94.601562 414 95.101562 C 401.300781 97.898438 391.199219 100.800781 374.5 106.199219 C 362.898438 110 359.5 111.199219 355.800781 113.101562 C 354.800781 113.601562 353.601562 114 353 114 C 352.398438 114 349.800781 115 347.199219 116.101562 C 344.601562 117.300781 340.898438 118.898438 339 119.699219 C 323.601562 126.199219 304.199219 136.199219 288.101562 145.898438 C 270.199219 156.601562 244.601562 174.898438 235.5 183.300781 C 233.898438 184.800781 230.601562 187.5 228.300781 189.300781 C 222.800781 193.5 186.898438 229.699219 180.398438 237.5 C 177.699219 240.800781 175.300781 243.699219 175 244 C 174.199219 244.800781 169 251.5 162.300781 260.5 C 143.601562 285.601562 126 316.101562 113.699219 345 C 112.898438 346.898438 111.5 350.101562 110.699219 352 C 109.898438 353.898438 108.398438 357.5 107.5 360 C 106.601562 362.5 105.398438 365.398438 105 366.5 C 103.898438 369 96.699219 391.101562 95 397 C 94.300781 399.5 93.398438 402.601562 93 404 C 92.5 405.398438 91.699219 408.699219 91 411.5 C 90.398438 414.199219 89.5 418.101562 89 420 C 88.5 421.898438 87.601562 426.199219 87 429.5 C 86.398438 432.800781 85.5 437.300781 85 439.5 C 84.5 441.699219 83.601562 447.101562 83 451.5 C 82.398438 455.898438 81.5 462.398438 81 466 C 77.898438 488.101562 77 528.800781 79.101562 550.5 C 82.398438 585 85.800781 604.398438 94.398438 636.300781 C 98.5 651.199219 109.398438 681.5 115.699219 695 C 119.898438 704 128.898438 722.300781 130.800781 725.5 C 131.699219 727.101562 134.199219 731.300781 136.199219 734.800781 C 138.300781 738.300781 140 741.398438 140 741.601562 C 140 742.300781 159.800781 771.699219 163.699219 776.800781 C 171.300781 786.898438 171 787.199219 171 768.601562 C 171 744.898438 173.699219 727.601562 181.101562 705 C 183.699219 697 185 693.800781 190.601562 682.699219 C 196.699219 670.601562 202 663 211.398438 653.199219 C 227.898438 636 241.398438 629.898438 257.101562 632.601562 C 272.300781 635.199219 281.199219 639.199219 302.5 653.398438 C 310.800781 658.800781 317.699219 663.601562 318 663.898438 C 318.300781 664.199219 319.199219 664.898438 320.101562 665.5 C 321 666 324.5 668.398438 327.800781 670.800781 C 331.199219 673.101562 334.398438 675 334.898438 675 C 335.5 675 336 675.398438 336 676 C 336 676.5 336.5 677 337.101562 677 C 337.699219 677 339.398438 677.800781 340.800781 678.898438 C 347.300781 683.5 362.101562 691 364.699219 691 C 369.601562 691 376.800781 676.601562 380 660.300781 C 381.300781 654 380.898438 652 378.5 652 C 373 652 355.699219 637.800781 346.699219 626 C 344.398438 623 341.699219 619.601562 340.800781 618.601562 C 339.800781 617.5 339 616.101562 339 615.398438 C 339 614.699219 338.601562 614 338.199219 613.800781 C 336.199219 613 326.699219 594.699219 321.601562 582 C 316.300781 568.699219 314.199219 561.800781 310.5 544.5 C 305.699219 522.5 305.898438 494.699219 310.898438 475 C 317.5 449.101562 337.398438 423.101562 361.800781 408.699219 C 384.898438 395 411.800781 386.101562 447.800781 380 C 462.5 377.601562 466.601562 376.800781 469.101562 375.800781 C 472 374.800781 472 376 469 362.5 C 462.898438 334.601562 463.601562 312.800781 472.199219 273 C 478.199219 245 486.800781 231.601562 505.5 221 C 517.398438 214.199219 523.699219 211 546.5 199.601562 C 572.800781 186.601562 582 181.398438 591 174.601562 C 606.601562 162.898438 615.199219 153.398438 620.898438 141.5 C 625.101562 133 626.101562 129.5 628 118.5 C 628.601562 114.601562 629.601562 109.601562 630.101562 107.300781 C 631.398438 101.101562 631.300781 100.300781 628.300781 99.699219 C 626.699219 99.398438 623.699219 98.699219 621.5 98.101562 C 617.699219 97.199219 612.699219 96 603.5 93.898438 C 589.300781 90.699219 570.300781 87.800781 551.5 85.898438 C 537.898438 84.5 489.5 84 479 85.101562 Z M 479 85.101562 "/>
<path style=" stroke:none;fill-rule:nonzero;fill:rgb(12.54902%,31.372549%,50.588235%);fill-opacity:1;" d="M 671.800781 115.601562 C 671.398438 115.898438 671.601562 117.601562 672.199219 119.300781 C 680.101562 144.601562 679.898438 165.300781 671.5 189.5 C 668.300781 198.699219 658.601562 216.800781 655 220 C 654.699219 220.300781 652.898438 222.5 651 225 C 649.101562 227.5 647.199219 229.601562 646.800781 229.800781 C 645.398438 230.398438 645.898438 233.101562 647.800781 235.800781 C 649.5 238.300781 657.101562 253.601562 659.101562 258.5 C 660.5 262.101562 663.699219 272.398438 664.898438 277.398438 C 667.5 288.101562 667.300781 311.300781 664.398438 320.699219 L 663.800781 323 L 676.699219 323 C 695.101562 323 709.199219 325.5 721.699219 331.101562 C 724.101562 332.199219 726.199219 333 726.5 333 C 726.898438 333 730.898438 335.5 735.5 338.601562 C 751.398438 349.101562 761.5 362.699219 767.898438 382 C 771.199219 392 771.699219 394 773 401.5 C 773.601562 405.300781 774.601562 410.898438 775.101562 413.898438 C 776.300781 421.199219 776.300781 469.699219 775 481.800781 C 771.898438 510.5 771.800781 511.398438 768.898438 529.699219 C 766.898438 542.398438 763.101562 560.199219 758.800781 576.5 C 755.398438 589.300781 748.199219 610.898438 744.5 619.5 C 743.800781 621.101562 742.398438 624.5 741.398438 627 C 739.398438 632.101562 728.300781 654.199219 724.398438 661 C 720.898438 666.898438 706.601562 687.898438 704.300781 690.5 C 703.300781 691.601562 700.398438 695 697.898438 698 C 688.800781 708.898438 675 721.300781 664 728.601562 C 659.199219 731.800781 650.699219 736 649 736 C 646.800781 736 641.699219 732.800781 636.398438 727.898438 C 631.199219 723.199219 630.699219 723 629.398438 724.699219 C 628.699219 725.699219 628 726.898438 628 727.300781 C 628 727.800781 626.699219 730.101562 625 732.5 C 623.398438 734.898438 622 737.300781 622 737.699219 C 622 738.199219 621.199219 739.5 620.300781 740.601562 C 619.300781 741.601562 616.800781 744.898438 614.800781 747.898438 C 603.101562 764.800781 577 789.398438 561.5 798 C 559.300781 799.199219 556.398438 801 555 801.898438 C 551.699219 804.199219 534.898438 812.398438 528 815 C 519.101562 818.5 504.898438 823 496.5 824.898438 C 493.800781 825.601562 489.898438 826.5 488 827 C 486.101562 827.398438 481.398438 828.300781 477.5 829 C 473.699219 829.601562 468.300781 830.5 465.699219 831.101562 C 463 831.601562 459.199219 832 457.199219 832 C 455.199219 832 450 832.398438 445.601562 833 C 431.800781 834.699219 381.601562 836.101562 377.800781 834.898438 C 373.601562 833.5 365.800781 829.800781 360.199219 826.5 C 354.898438 823.398438 337.699219 811.898438 337 811 C 336.699219 810.699219 330.699219 806.5 323.601562 801.699219 L 310.699219 793.101562 L 307.601562 794.699219 C 305.898438 795.601562 304.300781 796.601562 304 797 C 303.699219 797.300781 300.601562 799.601562 297 802 C 278.800781 814.101562 263.5 827.601562 254.898438 839 C 248.898438 847 243.699219 856.601562 244.300781 858.398438 C 244.601562 859.199219 248.101562 862.199219 252.199219 865.199219 C 260.5 871.5 286.601562 889 287.601562 889 C 287.898438 889 289.5 889.898438 291 891 C 295.800781 894.398438 324.199219 909.199219 334.101562 913.398438 C 336.5 914.398438 340.5 916.199219 343 917.199219 C 345.5 918.300781 348.5 919.601562 349.800781 920.101562 C 351 920.601562 353 921.398438 354.300781 921.898438 C 355.5 922.398438 358.101562 923.300781 360 924 C 361.898438 924.699219 364.398438 925.601562 365.5 926 C 367.5 926.898438 374.398438 929.101562 385 932.5 C 408.699219 939.898438 437.699219 945.699219 468 949.101562 C 482.800781 950.800781 531.800781 951.398438 545 950.101562 C 563.898438 948.199219 582 945.800781 590.5 944 C 592.699219 943.5 597.199219 942.601562 600.5 942 C 607.699219 940.601562 613.601562 939.199219 625.800781 936 C 634.300781 933.699219 653.398438 927.800781 657.5 926 C 658.601562 925.601562 661.101562 924.699219 663 924 C 664.898438 923.300781 667.5 922.398438 668.800781 921.898438 C 670 921.398438 672 920.601562 673.300781 920.101562 C 682.101562 916.601562 692 912.101562 704.5 905.898438 C 718.300781 899.101562 728.101562 893.800781 732 891 C 733.601562 889.898438 735.101562 889 735.398438 889 C 736.398438 889 765.898438 869.101562 773 863.601562 C 805.5 838.601562 832.898438 811.300781 857.699219 779 C 863.101562 771.898438 883 742.398438 883 741.398438 C 883 741.101562 883.898438 739.5 885 738 C 888.5 733.101562 903.101562 705 907.898438 693.898438 C 913.398438 681.101562 920.800781 661.699219 923.699219 652.5 C 924.601562 649.699219 925.898438 645.5 926.699219 643 C 930.699219 630.898438 936.199219 607.398438 939.101562 590 C 943.101562 566.300781 944.5 547 944.5 517.5 C 944.5 490.398438 944 480.699219 941.898438 465 C 938.398438 438.398438 935.699219 425.101562 928.601562 398.699219 C 925.101562 386 915.601562 359.101562 910.300781 347 C 900.898438 325.601562 888.699219 302.101562 882.898438 293.800781 C 881.800781 292.398438 881 290.898438 881 290.601562 C 881 289 862.101562 261.699219 854.699219 252.601562 C 853 250.5 850.398438 247.199219 849 245.398438 C 847.601562 243.601562 844.699219 239.898438 842.5 237.101562 C 837.300781 230.601562 798.101562 191.699219 791 186 C 788 183.5 785.300781 181.300781 785 181 C 784.300781 180.300781 777.699219 175.199219 768.5 168.300781 C 757.898438 160.398438 747.699219 153.601562 735 145.898438 C 725.601562 140.300781 721.601562 138.101562 706.5 130.199219 C 702.5 128.101562 690.800781 122.601562 684 119.699219 C 682.101562 118.898438 678.898438 117.5 676.800781 116.601562 C 672.800781 114.800781 672.601562 114.800781 671.800781 115.601562 Z M 671.800781 115.601562 "/>
<path style=" stroke:none;fill-rule:nonzero;fill:rgb(12.54902%,31.372549%,50.588235%);fill-opacity:1;" d="M 652.199219 142.5 C 649.101562 157.398438 645.898438 171.898438 644 178.5 C 643.398438 180.699219 642.5 183.800781 642.101562 185.5 C 641.601562 187.101562 640.5 190.699219 639.601562 193.300781 C 638.601562 196 638.101562 198.699219 638.398438 199.300781 C 638.601562 200 638.898438 199.800781 638.898438 198.800781 C 639 197.898438 639.300781 197 639.800781 196.800781 C 640.5 196.5 644.300781 188.898438 646 184.5 C 650.601562 172.699219 653.398438 157.699219 652.800781 148 C 652.601562 144.398438 652.300781 141.898438 652.199219 142.5 Z M 652.199219 142.5 "/>
<path style=" stroke:none;fill-rule:nonzero;fill:rgb(12.54902%,31.372549%,50.588235%);fill-opacity:1;" d="M 612 191.300781 C 604 198.699219 573.199219 216.300781 556.5 223 C 549 226 539.800781 230.300781 535.5 232.800781 C 515.101562 244.601562 507.800781 250.199219 505.601562 255.398438 C 502.398438 263 498.800781 274.898438 497.101562 283.5 C 496.5 286.199219 495.601562 290.601562 495 293.199219 C 493.199219 301.398438 493.101562 301.398438 504.800781 295.5 C 517.800781 289 521 287.601562 537.5 281 C 561 271.699219 567.699219 268 575.601562 259.800781 C 579.398438 255.800781 583.699219 250.898438 585 249 C 586.398438 247.101562 588.199219 244.699219 589.101562 243.699219 C 590 242.800781 591.300781 240.699219 592.101562 239.199219 C 592.800781 237.699219 594.601562 234.699219 596.101562 232.5 C 598.300781 229.101562 607.5 210.601562 610 204.5 C 615.699219 190.601562 616.199219 187.398438 612 191.300781 Z M 612 191.300781 "/>
<path style=" stroke:none;fill-rule:nonzero;fill:rgb(12.54902%,31.372549%,50.588235%);fill-opacity:1;" d="M 628.5 261.699219 C 622.800781 265.800781 619.898438 268.101562 612 274.699219 C 596.898438 287.199219 594.398438 297.398438 602.601562 313.300781 C 606.398438 320.5 613.398438 325 620.800781 325 C 625.898438 325 626.398438 324.800781 631.300781 319.699219 C 635.101562 316 637.101562 312.898438 638.398438 309 C 640.800781 301.800781 641.601562 287.398438 640 280.101562 C 638.601562 273.898438 633.101562 261.300781 631.5 260.601562 C 630.898438 260.398438 629.5 260.898438 628.5 261.699219 Z M 628.5 261.699219 "/>
<path style=" stroke:none;fill-rule:nonzero;fill:rgb(12.54902%,31.372549%,50.588235%);fill-opacity:1;" d="M 565.5 298.101562 C 562.699219 298.699219 549.898438 303.101562 545.5 305 C 544.398438 305.398438 539.699219 307.300781 535 309 C 522.5 313.800781 503.199219 323.398438 497.601562 327.699219 C 491.199219 332.601562 489.398438 338.101562 491 348 C 493.699219 364.300781 497.601562 374.101562 506.5 386.5 C 512.300781 394.601562 527.898438 410.898438 533.699219 414.800781 C 538.101562 417.898438 543 417.601562 550.898438 413.800781 C 556.5 411.101562 571.5 401.898438 573 400.101562 C 573.300781 399.800781 576.398438 397 580 394 C 583.601562 391 589 386 592 382.898438 C 597 377.898438 599.101562 374.898438 608.699219 359.601562 C 611.800781 354.699219 612 352 609.398438 352 C 607.199219 352 599 348 592.898438 343.898438 C 586.300781 339.398438 580.300781 332.898438 577.199219 326.800781 C 574.601562 321.601562 571 310.398438 571 307.601562 C 571 306.398438 570.398438 303.699219 569.699219 301.5 C 568.601562 297.601562 568.300781 297.398438 565.5 298.101562 Z M 565.5 298.101562 "/>
<path style=" stroke:none;fill-rule:nonzero;fill:rgb(12.54902%,31.372549%,50.588235%);fill-opacity:1;" d="M 699.601562 358.5 C 698.699219 359.800781 698 361.398438 698 362 C 698 362.601562 697.601562 363.800781 697.101562 364.800781 C 694 371 692.699219 390.5 695 397.398438 C 703.800781 424.398438 707.601562 435.5 714.898438 455.5 C 718.800781 466.300781 727.898438 493.898438 730 501.5 C 734.398438 517.199219 736.101562 524.199219 738.699219 536.199219 C 739.699219 541.101562 741 545 741.601562 545 C 742.199219 545 743 542.898438 743.300781 540.199219 C 743.601562 537.601562 744.398438 532.300781 745 528.5 C 746.898438 516.300781 747.800781 507.101562 749 487 C 750.398438 465 749.699219 425.199219 748 417.5 C 741.898438 391.601562 735 376.800781 723.601562 365.398438 C 716.601562 358.5 712 356 706.101562 356 C 702 356 701 356.398438 699.601562 358.5 Z M 699.601562 358.5 "/>
<path style=" stroke:none;fill-rule:nonzero;fill:rgb(12.54902%,31.372549%,50.588235%);fill-opacity:1;" d="M 667 362.699219 C 662.898438 364.199219 658.101562 366.601562 654.300781 369.199219 C 652 370.699219 649.898438 372 649.5 372 C 649 372 644.898438 374.800781 641.101562 377.699219 C 632.800781 384.101562 625.699219 389.898438 622 393.300781 C 619.5 395.601562 615 399.5 612 402 C 609 404.5 606.300781 406.699219 606 407.101562 C 605.699219 407.398438 602.398438 410 598.5 412.800781 C 594.699219 415.601562 591.101562 418.300781 590.5 418.800781 C 580.601562 426.800781 559.898438 438.101562 547.601562 442.101562 C 541.601562 444 540.300781 444.101562 536.601562 443 C 531.601562 441.5 523.601562 437.800781 523.199219 436.699219 C 523 436.300781 522.398438 436 521.898438 436 C 520 436 508 426 498.101562 416.101562 L 487.601562 405.800781 L 478.601562 406.898438 C 468.300781 408.300781 459.5 409.699219 453.300781 411.101562 C 436.898438 414.699219 430.898438 416.101562 428 417 C 426.601562 417.398438 423.5 418.300781 421 419 C 415.300781 420.601562 405.101562 423.898438 402.5 425 C 401.398438 425.398438 398.898438 426.398438 397 427 C 392.398438 428.699219 372.601562 438.101562 372 438.898438 C 371.699219 439.300781 369.898438 440.699219 368 441.898438 C 366.101562 443.199219 360.898438 447.898438 356.5 452.398438 C 344.300781 464.699219 340.199219 474.398438 337.5 497.398438 C 333 534.5 349.398438 586.601562 373.101562 611 C 383.800781 622.101562 389.199219 623.898438 405.300781 622.101562 C 410.898438 621.398438 417.898438 620.5 420.800781 620 C 430.199219 618.199219 437.398438 616.898438 441.5 616 C 453.101562 613.398438 456.601562 612.601562 469.5 609.398438 C 477.199219 607.398438 485.101562 605.398438 487 605 C 488.898438 604.5 492.101562 603.699219 494 603.101562 C 495.898438 602.601562 501.101562 601.199219 505.5 600 C 509.898438 598.800781 515 597.398438 516.800781 596.898438 C 518.5 596.398438 521.601562 595.5 523.5 595 C 525.398438 594.398438 528.601562 593.5 530.5 593 C 532.398438 592.398438 535.5 591.601562 537.300781 591.101562 C 539 590.5 542.101562 589.699219 544.101562 589.199219 C 551 587.398438 551.5 586.699219 547.800781 583.398438 C 534.199219 571.101562 510.101562 559.199219 486.5 553.101562 C 467.601562 548.300781 437.300781 549.398438 407.5 556.101562 C 397.199219 558.398438 395.300781 558.898438 388 561 C 383.898438 562.300781 377.5 563.5 373.898438 563.699219 C 367.398438 564.101562 367.199219 564.101562 365.101562 561.199219 C 361.699219 556.398438 362.300781 553.398438 367.800781 548.101562 C 372.699219 543.199219 380.101562 537.101562 382.898438 535.601562 C 383.800781 535.101562 384.699219 534.398438 385 534 C 385.699219 533.101562 396.898438 525.601562 401.601562 522.898438 C 410.5 517.800781 424 511.199219 432 508.101562 C 436.699219 506.300781 441.398438 504.398438 442.5 504 C 447.101562 502.101562 448.101562 501.800781 462.5 498 C 486.601562 491.699219 512.800781 489.398438 532.5 492 C 550.398438 494.398438 564.699219 497.101562 574.5 500.101562 C 580.398438 501.800781 590.5 505.101562 592.5 506 C 593.601562 506.398438 596.101562 507.398438 598 508.101562 C 606.800781 511.300781 629 521.898438 637.5 527 C 640.300781 528.699219 643.199219 530.300781 644 530.699219 C 645.5 531.398438 674.5 550.601562 676.5 552.199219 C 677 552.699219 681.601562 556 686.5 559.601562 C 691.5 563.101562 696.300781 566.699219 697.300781 567.5 C 698.199219 568.300781 699.398438 569 699.800781 569 C 700.300781 569 701.5 569.800781 702.601562 570.699219 C 704.601562 572.5 705.699219 573.199219 712.800781 577.199219 C 716.601562 579.300781 717.398438 578.898438 718.601562 574.199219 C 719.800781 569.800781 714.199219 542.699219 706.898438 517.199219 C 706.398438 515.5 705.601562 512.5 705.101562 510.699219 C 704.601562 509 703.601562 505.5 702.800781 503 C 702 500.5 700.300781 495.101562 699 491 C 694.300781 475.800781 684.199219 445.800781 682 440.5 C 681.601562 439.398438 680.199219 435.800781 679 432.5 C 677.800781 429.199219 676.300781 425.398438 675.800781 424 C 675.199219 422.601562 674.398438 420.601562 673.898438 419.5 C 672.800781 416.898438 669.601562 405.800781 668.101562 399.699219 C 666.699219 393.800781 666.601562 366.5 668 363.898438 C 668.601562 362.898438 668.898438 362 668.800781 362.101562 C 668.601562 362.101562 667.800781 362.398438 667 362.699219 Z M 667 362.699219 "/>
<path style=" stroke:none;fill-rule:nonzero;fill:rgb(12.54902%,31.372549%,50.588235%);fill-opacity:1;" d="M 492.5 519.601562 C 488.101562 520 475.398438 522 465 523.898438 L 461.5 524.601562 L 465 525.199219 C 466.898438 525.601562 472.101562 526.199219 476.5 526.5 C 500.199219 528.300781 524.800781 537.398438 548.199219 553.101562 C 553.300781 556.5 557.699219 559.601562 558 559.898438 C 558.300781 560.199219 561 562.5 564 565 C 567 567.398438 573.601562 573.699219 578.5 578.898438 C 596.398438 597.800781 599.5 600.601562 605.199219 603.398438 C 615.5 608.5 632.5 610.199219 649.5 608 C 661.5 606.398438 670.199219 604.898438 673 604 C 674.398438 603.601562 677.5 602.699219 680 602 C 682.5 601.300781 685.5 600.300781 686.800781 599.699219 C 688.898438 598.699219 688.898438 598.5 687.300781 597.699219 C 685.601562 596.699219 647.699219 568.300781 641.898438 563.601562 C 639 561.199219 628.101562 554 627.5 554 C 627.101562 554 625.601562 553.199219 624.199219 552.101562 C 612.300781 543.699219 586.699219 532.300781 568 527 C 565.5 526.300781 562.398438 525.398438 561 525 C 559.601562 524.601562 556 523.699219 553 523.199219 C 550 522.601562 545 521.601562 542 521 C 536.300781 519.898438 501.398438 518.898438 492.5 519.601562 Z M 492.5 519.601562 "/>
<path style=" stroke:none;fill-rule:nonzero;fill:rgb(12.54902%,31.372549%,50.588235%);fill-opacity:1;" d="M 563 610.199219 C 520.898438 624.101562 504.601562 629.601562 495 633 C 488.699219 635.300781 481.5 637.800781 479 638.601562 C 476.5 639.398438 473.601562 640.5 472.5 640.898438 C 471.398438 641.398438 468.898438 642.300781 467 643 C 465.101562 643.699219 462.601562 644.601562 461.5 645 C 460.398438 645.398438 457 646.699219 454 647.800781 C 451 648.898438 440.398438 653 430.398438 657 L 412.300781 664.101562 L 411 668.300781 C 410.300781 670.601562 409.398438 673.398438 409 674.5 C 408.601562 675.601562 407.601562 678.101562 406.898438 680 C 404.300781 687.300781 397.699219 699.601562 391.800781 708.199219 C 385.5 717.5 371.601562 732.300781 364.5 737.601562 C 362.300781 739.199219 360.300781 740.800781 360 741.101562 C 358.398438 743.101562 337.101562 756.199219 329.300781 760 C 324.300781 762.5 320.101562 765 320.101562 765.5 C 320 766.101562 321.300781 767.398438 323 768.300781 C 324.601562 769.300781 326.5 770.601562 327.199219 771.398438 C 327.898438 772.101562 334.101562 776.398438 341 781 C 347.898438 785.601562 353.699219 789.601562 354 789.898438 C 354.300781 790.199219 355.699219 791.101562 357.300781 791.898438 C 358.800781 792.699219 360 793.699219 360 794.199219 C 360 794.601562 360.5 795 361 795 C 361.601562 795 365.398438 797.199219 369.398438 800 C 383.699219 809.601562 381.300781 809 406.300781 809 C 418.5 809 432.300781 808.5 437 808 C 466.101562 804.398438 467 804.300781 485.800781 799.898438 C 495.300781 797.601562 515.101562 791.199219 516.5 789.898438 C 517 789.398438 518 789 518.800781 789 C 520.199219 789 535.800781 781.398438 543.699219 776.898438 C 565.601562 764.5 590.898438 739.5 603.199219 718.199219 C 612.398438 702.398438 621.300781 679.300781 624 664.5 C 624.699219 660.601562 625.601562 656.199219 626.101562 654.601562 C 626.601562 653 627 647.699219 627 642.898438 L 627 634 L 622.398438 634 C 616.898438 634 604.300781 631.300781 598 628.800781 C 588 624.699219 582.699219 621.398438 574.101562 613.398438 L 568.5 608.398438 Z M 563 610.199219 "/>
<path style=" stroke:none;fill-rule:nonzero;fill:rgb(12.54902%,31.372549%,50.588235%);fill-opacity:1;" d="M 715 617.699219 C 705.800781 621.898438 699.800781 624.101562 692.5 626 C 681.800781 628.898438 677.800781 629.800781 672.5 630.898438 C 669.199219 631.601562 664.898438 632.601562 662.898438 633.101562 C 660.898438 633.601562 658.101562 634 656.800781 634 C 654.5 634 654.199219 634.398438 653.601562 640.199219 C 650.601562 667.699219 648.199219 680 643.601562 693 C 641.300781 699.398438 641.5 700.300781 646 704.398438 C 649.898438 707.898438 650.199219 708 652.800781 706.601562 C 659.898438 702.898438 679.300781 683.898438 688.5 671.5 C 690.199219 669.300781 691.800781 667.300781 692.101562 667 C 693 666.199219 702.5 651.898438 705.5 646.898438 C 709.199219 640.5 721.300781 615.898438 720.898438 615.601562 C 720.699219 615.398438 718 616.300781 715 617.699219 Z M 715 617.699219 "/>
<path style=" stroke:none;fill-rule:nonzero;fill:rgb(12.54902%,31.372549%,50.588235%);fill-opacity:1;" d="M 245.101562 668.800781 C 240 671.199219 227 684.5 221.300781 693 C 210.800781 708.699219 202.101562 731.5 199.101562 751 C 198.5 754.601562 197.601562 760.5 197 764.101562 C 195.699219 772.898438 195.699219 795.699219 197.101562 807.800781 C 198.199219 817.199219 198.398438 817.699219 202.398438 821.898438 C 210.699219 830.601562 222.398438 840.398438 222.898438 838.898438 C 223.101562 838.101562 226 833.398438 229.300781 828.5 C 239.300781 813.398438 263.101562 791 281.199219 779.5 C 283.898438 777.800781 286 776.199219 286 775.898438 C 286 775.5 282.699219 772.601562 278.800781 769.5 C 274.800781 766.300781 267.898438 760 263.5 755.5 C 253.101562 744.898438 252.300781 742.601562 253.898438 729 C 256.601562 704.898438 254.300781 672 249.601562 668 C 248.898438 667.5 247.199219 667.699219 245.101562 668.800781 Z M 245.101562 668.800781 "/>
<path style=" stroke:none;fill-rule:nonzero;fill:rgb(12.54902%,31.372549%,50.588235%);fill-opacity:1;" d="M 290.5 685.199219 C 290.300781 685.898438 289.898438 690.5 289.601562 695.5 C 289.199219 700.398438 288.5 707.398438 288 711 C 287.398438 714.601562 286.699219 720.898438 286.398438 725.101562 C 285.800781 732.101562 286 733 288.300781 736.699219 C 290.898438 740.800781 295.800781 745 298 745 C 299.101562 745 307.898438 740.5 317.5 735 C 325 730.800781 334.800781 723.699219 341.699219 717.601562 L 344.898438 714.699219 L 339.398438 711.898438 C 331 707.5 324.800781 704 321.800781 701.898438 C 320.398438 700.800781 318.898438 700 318.5 700 C 318.199219 700 315.199219 698.199219 312 696 C 308.800781 693.800781 305.800781 692 305.5 692 C 305.199219 692 302.199219 690.199219 299 688 C 292.699219 683.800781 291.199219 683.199219 290.5 685.199219 Z M 290.5 685.199219 "/>
</g>
</svg>
